<svg width="230" height="206" viewBox="0 0 230 206" fill="none" xmlns="http://www.w3.org/2000/svg">
<path d="M77.7734 18.014H78.7734C80.1154 -1.98303 100.315 8.78497 109.773 15.014C102.472 -2.21803 71.8014 -7.07103 77.7734 18.014Z" fill="#303030"/>
<path d="M126.773 12.014C137.265 8.196 152.442 -0.187006 155.773 17.014C159.723 10.42 157.231 1.05899 148.772 0.122988C140.001 -0.848012 130.539 4.00599 126.773 12.014Z" fill="#303030"/>
<path d="M109.773 22.014V23.014H112.773V24.014H109.773L107.773 31.014V32.014C126.729 30.518 143.477 37.237 141.773 59.014C157.545 36.997 130.951 16.972 109.773 22.014Z" fill="#303030"/>
<path d="M91.7734 58.014H92.7734C92.7734 46.391 96.6934 36.871 108.773 33.014L112.773 24.014C107.706 21.128 101.932 23.64 97.7884 27.228C88.2644 35.471 88.6114 46.763 91.7734 58.014Z" fill="#303030"/>
<path d="M92.7734 70.014L97.7734 66.014L98.7734 78.014C102.937 75.115 106.681 70.677 111.773 69.434C128.237 65.414 138.051 86.598 141.737 99.014C149.455 125.013 144.906 151.13 130.709 174.014C126.046 181.53 120.783 188.552 114.738 195.014C112.839 197.044 108.445 200.499 110.525 203.691C113.36 208.046 118.495 203.195 120.769 200.995C128.043 193.956 134.346 185.665 139.569 177.014C157.51 147.303 153.208 119.091 147.773 87.014H176.773V86.014H169.773V78.014H176.773C167.431 74.094 155.234 80.297 145.957 76.411C140.565 74.151 137.472 66.173 132.769 62.546C120.677 53.224 99.6174 55.378 92.7734 70.014Z" fill="#303030"/>
<path d="M97.7734 63.014L73.3494 98.014L59.7734 120.014L63.7734 117.014L64.7734 127.014L76.7734 110.014H77.7734C75.8384 134.535 79.0984 167.927 99.7734 185.014C104.387 169.541 89.0214 150.984 87.0594 135.014C85.4144 121.619 87.8874 105.747 92.1284 93.014C95.5984 82.596 102.513 74.307 97.7734 63.014Z" fill="#303030"/>
<path d="M28.7734 73.014V75.014H35.7734L32.7734 82.014V83.014C47.1114 83.014 77.4824 89.618 82.7734 73.014H28.7734Z" fill="#303030"/>
<path d="M164.773 78.014V86.014L205.773 89.014L206.773 80.014C193.144 74.901 178.85 77.723 164.773 78.014Z" fill="#303030"/>
<path d="M15.7734 141.014L16.7734 140.014C8.27736 119.932 4.92137 84.427 35.7734 83.014V82.014H32.7734V81.014H35.7734V74.014C31.8184 73.932 27.6124 72.755 23.7734 73.995C-5.13864 83.335 -7.52664 124.464 15.7734 141.014Z" fill="#303030"/>
<path d="M201.773 89.014C218.474 93.836 222.665 110.108 217.067 125.014C215.496 129.198 208.104 139.864 212.797 144.124C217.477 148.372 225.138 131.94 226.32 129.014C231.381 116.493 231.01 103.158 222.846 92.015C220.431 88.72 207.53 75.48 202.802 80.799C201.111 82.701 201.936 86.646 201.773 89.014Z" fill="#303030"/>
<path d="M158.773 100.014C162.625 120.688 169.12 142.619 193.773 147.014V146.014L187.773 144.014L189.773 137.014L194.773 139.014V138.014C178.185 127.825 171.855 112.918 158.773 100.014Z" fill="#303030"/>
<path d="M139.773 116.014C139.761 133.657 131.163 151.389 120.323 165.014C117.548 168.502 112.04 177.244 106.866 176.998C102.614 176.795 98.8794 168.136 96.7734 165.014H95.7734L100.646 175.59L103.773 192.014C110.986 190.558 115.621 183.617 119.874 178.014C130.458 164.072 147.472 134.362 139.773 116.014Z" fill="#303030"/>
<path d="M63.7734 115.014C53.5054 124.173 41.2264 143.686 24.7734 136.098C19.6114 133.717 16.1974 129.357 11.7734 126.014C13.2074 131.681 11.5934 139.25 16.9424 143.084C33.8384 155.195 73.3694 137.662 63.7734 115.014Z" fill="#303030"/>
<path d="M215.773 131.014C205.56 140.175 195.872 137.726 183.773 134.014L181.773 141.014L187.773 143.014L186.773 145.014C197.079 148.494 206.908 149.567 216.773 144.014L215.773 131.014Z" fill="#303030"/>
</svg>
